<?xml version="1.0" standalone="no"?>
<!DOCTYPE svg PUBLIC "-//W3C//DTD SVG 20010904//EN"
 "http://www.w3.org/TR/2001/REC-SVG-20010904/DTD/svg10.dtd">
<svg version="1.0" xmlns="http://www.w3.org/2000/svg"
 width="450.000000pt" height="450.000000pt" viewBox="0 0 450.000000 450.000000"
 preserveAspectRatio="xMidYMid meet">
<metadata>
Created by potrace 1.11, written by Peter Selinger 2001-2013
</metadata>
<g transform="translate(0.000000,450.000000) scale(0.100000,-0.100000)"
fill="#000000" stroke="none">
<path d="M0 2250 l0 -2250 2250 0 2250 0 0 2250 0 2250 -2250 0 -2250 0 0
-2250z m1430 1449 c14 0 30 -5 36 -10 6 -5 19 -7 28 -3 9 3 16 2 16 -3 0 -5
14 -10 32 -10 18 0 34 -5 36 -11 2 -7 8 -10 13 -6 5 3 9 0 9 -6 0 -6 4 -8 10
-5 12 7 90 -32 90 -45 0 -6 4 -9 9 -8 5 2 17 -6 26 -17 9 -11 13 -13 9 -5 -3
8 6 1 22 -16 16 -16 22 -21 14 -10 -22 31 77 -63 110 -105 16 -19 30 -42 32
-50 2 -7 10 -20 18 -27 13 -12 13 -13 0 -7 -10 4 -9 2 2 -8 10 -8 15 -17 11
-20 -3 -4 -1 -7 5 -7 6 0 9 -7 5 -17 -5 -12 -3 -14 7 -8 10 6 12 4 7 -8 -3
-10 -2 -17 3 -17 5 0 7 -7 4 -15 -4 -8 -1 -15 5 -15 6 0 8 -7 5 -15 -4 -8 -1
-15 6 -15 7 0 9 -8 5 -20 -4 -11 -2 -20 4 -20 10 0 12 -25 12 -125 0 -100 -2
-125 -12 -125 -6 0 -8 -9 -4 -20 4 -12 2 -20 -5 -20 -7 0 -10 -7 -6 -15 3 -8
1 -15 -5 -15 -6 0 -9 -7 -5 -15 3 -8 1 -15 -4 -15 -5 0 -7 -7 -4 -15 4 -8 1
-15 -6 -15 -6 0 -8 -4 -5 -10 3 -5 1 -10 -6 -10 -7 0 -9 -3 -6 -7 4 -3 -1 -12
-11 -20 -11 -10 -12 -12 -2 -8 13 6 13 5 0 -7 -8 -7 -16 -20 -18 -27 -2 -8
-16 -31 -32 -50 -32 -41 -119 -124 -105 -101 6 9 -3 2 -18 -15 -16 -16 -26
-23 -22 -15 4 10 2 9 -8 -2 -8 -10 -16 -15 -19 -12 -4 3 -9 0 -14 -7 -4 -7 -3
-10 4 -5 5 3 13 0 15 -6 4 -10 8 -10 15 1 6 8 18 11 30 7 11 -4 23 -3 26 2 7
12 265 12 272 0 3 -5 14 -6 24 -3 10 3 21 1 24 -4 4 -6 13 -8 21 -4 8 3 15 0
15 -7 0 -6 4 -9 10 -5 15 9 61 -6 53 -18 -4 -6 0 -8 10 -4 10 3 17 2 17 -3 0
-5 7 -6 17 -3 12 5 14 3 8 -7 -6 -9 -4 -11 4 -6 7 5 19 0 27 -10 9 -11 12 -13
9 -6 -6 11 -3 12 14 3 11 -7 21 -16 21 -22 0 -6 4 -8 9 -5 12 8 115 -70 166
-124 22 -24 33 -39 25 -35 -13 8 -13 6 -1 -8 7 -9 18 -14 25 -10 6 3 8 3 4 -2
-4 -4 0 -14 10 -22 11 -10 12 -12 2 -8 -8 4 -4 -3 10 -14 14 -11 21 -21 16
-21 -6 0 -1 -7 10 -16 10 -8 12 -13 4 -9 -10 4 -9 2 2 -8 10 -8 15 -17 11 -20
-3 -4 -1 -7 6 -7 7 0 9 -4 6 -10 -3 -5 -1 -10 5 -10 6 0 8 -4 5 -10 -3 -6 -1
-10 5 -10 7 0 10 -7 6 -15 -3 -8 -1 -15 5 -15 6 0 8 -4 4 -9 -3 -5 -1 -12 4
-16 6 -3 8 -12 4 -20 -3 -8 0 -15 7 -15 7 0 10 -7 7 -15 -4 -8 -2 -17 4 -21 5
-3 7 -14 4 -24 -3 -10 -2 -21 2 -23 10 -6 9 -214 0 -223 -4 -4 -4 -18 -1 -30
4 -14 2 -24 -4 -24 -6 0 -8 -9 -5 -20 3 -11 0 -20 -6 -20 -5 0 -8 -7 -5 -15 4
-8 1 -15 -5 -15 -6 0 -8 -7 -5 -15 4 -8 1 -15 -6 -15 -6 0 -8 -4 -5 -10 3 -5
1 -10 -5 -10 -6 0 -8 -4 -5 -10 3 -5 1 -10 -5 -10 -6 0 -8 -4 -5 -10 3 -5 1
-10 -5 -10 -6 0 -8 -4 -5 -10 3 -5 1 -10 -5 -10 -6 0 -8 -4 -5 -10 3 -5 -7
-22 -22 -37 -15 -14 -21 -23 -13 -19 8 5 4 -2 -10 -15 -14 -13 -19 -20 -10
-15 8 5 -5 -9 -29 -31 -24 -22 -62 -60 -84 -84 -22 -24 -36 -37 -31 -29 5 9
-2 4 -15 -10 -13 -14 -20 -18 -16 -10 4 10 1 9 -8 -2 -8 -10 -17 -15 -20 -11
-4 3 -9 -2 -13 -11 -3 -9 -10 -13 -15 -10 -5 3 -9 0 -9 -6 0 -6 -4 -8 -10 -5
-5 3 -10 1 -10 -5 0 -6 -4 -8 -10 -5 -5 3 -10 1 -10 -5 0 -6 -4 -8 -10 -5 -5
3 -10 1 -10 -5 0 -6 -4 -8 -10 -5 -5 3 -10 1 -10 -5 0 -6 -5 -8 -11 -4 -6 3
-15 1 -19 -7 -12 -18 -73 -22 -66 -3 3 8 1 14 -5 14 -6 0 -7 5 -4 10 3 6 1 10
-5 10 -6 0 -8 5 -5 10 3 6 1 10 -5 10 -6 0 -8 5 -5 10 3 6 1 10 -5 10 -7 0 -9
7 -6 16 4 10 2 13 -6 8 -8 -5 -9 -2 -5 9 4 10 1 17 -5 17 -6 0 -9 3 -5 6 3 4
0 13 -8 20 -8 8 -11 22 -8 31 5 12 3 14 -7 8 -10 -6 -12 -4 -7 8 3 10 2 17 -4
17 -6 0 -7 5 -4 10 3 6 1 10 -5 10 -6 0 -8 5 -5 10 3 6 1 10 -5 10 -6 0 -8 5
-5 10 3 6 1 10 -5 10 -7 0 -10 7 -6 15 3 8 1 15 -5 15 -6 0 -7 5 -4 10 3 6 1
10 -5 10 -6 0 -8 5 -5 10 3 6 1 10 -5 10 -6 0 -8 5 -5 10 3 6 1 10 -5 10 -6 0
-8 5 -5 10 3 6 1 10 -5 10 -7 0 -9 7 -6 16 4 10 2 13 -6 8 -8 -5 -9 -2 -5 9 4
10 1 17 -5 17 -6 0 -9 3 -5 6 3 4 -1 13 -9 21 -8 8 -12 19 -9 24 4 5 1 9 -5 9
-7 0 -10 7 -6 15 3 8 1 15 -5 15 -6 0 -7 5 -4 10 3 6 1 10 -5 10 -6 0 -8 5 -5
10 3 5 1 10 -5 10 -6 0 -8 5 -5 10 3 6 1 10 -5 10 -7 0 -9 7 -6 16 4 10 2 13
-6 8 -8 -5 -9 -2 -5 9 3 10 2 17 -4 17 -6 0 -7 5 -4 10 3 6 1 10 -5 10 -6 0
-8 5 -5 10 3 6 1 10 -5 10 -6 0 -8 5 -5 10 3 6 1 10 -5 10 -7 0 -10 7 -6 15 3
8 1 15 -5 15 -6 0 -7 5 -4 10 3 6 1 10 -6 10 -7 0 -10 3 -6 6 3 4 -1 13 -9 21
-8 8 -12 19 -9 24 4 5 1 9 -5 9 -7 0 -9 7 -6 16 4 10 2 13 -6 8 -8 -5 -9 -2
-5 9 3 10 2 17 -4 17 -6 0 -7 5 -4 10 3 5 1 10 -5 10 -6 0 -8 5 -5 10 3 5 2
10 -4 10 -6 0 -7 7 -4 17 5 12 3 14 -7 8 -10 -6 -12 -4 -7 8 3 10 2 17 -4 17
-6 0 -7 5 -4 10 3 6 1 10 -5 10 -6 0 -8 5 -5 10 3 6 1 10 -5 10 -6 0 -8 5 -5
10 3 6 1 10 -5 10 -7 0 -9 7 -6 16 4 10 2 13 -6 8 -8 -5 -9 -2 -5 9 3 10 2 17
-4 17 -6 0 -7 5 -4 10 3 6 1 10 -5 10 -6 0 -8 5 -5 10 3 6 1 10 -5 10 -6 0 -8
5 -5 10 3 6 1 10 -5 10 -7 0 -9 7 -6 16 4 10 2 13 -6 8 -8 -5 -9 -2 -5 9 3 10
2 17 -4 17 -6 0 -7 5 -4 10 3 6 1 10 -5 10 -6 0 -8 5 -5 10 3 6 2 10 -4 10 -6
0 -7 7 -4 17 5 12 3 14 -7 8 -10 -6 -12 -4 -7 8 3 10 2 17 -4 17 -6 0 -7 5 -4
10 3 6 1 10 -5 10 -6 0 -8 5 -5 10 3 6 1 10 -5 10 -6 0 -8 5 -5 10 3 6 1 10
-5 10 -7 0 -9 7 -6 16 3 8 2 12 -4 9 -6 -3 -10 -2 -10 4 0 5 6 12 13 14 7 3 4
6 -6 6 -10 1 -15 6 -12 11 3 6 1 10 -5 10 -6 0 -8 5 -5 10 3 6 1 10 -5 10 -6
0 -8 5 -5 10 3 6 1 10 -5 10 -7 0 -9 7 -6 16 4 10 2 13 -6 8 -8 -5 -9 -2 -5 9
3 10 2 17 -4 17 -6 0 -7 5 -4 10 3 6 1 10 -5 10 -6 0 -8 5 -5 10 3 6 2 10 -4
10 -6 0 -7 7 -4 17 5 12 3 14 -7 8 -10 -6 -12 -4 -7 8 3 10 2 17 -4 17 -6 0
-7 5 -4 10 3 6 1 10 -5 10 -6 0 -8 5 -5 10 3 6 1 10 -5 10 -6 0 -8 5 -5 10 3
6 1 10 -5 10 -7 0 -9 7 -6 16 4 10 2 13 -6 8 -8 -5 -9 -2 -5 9 3 10 2 17 -4
17 -6 0 -7 5 -4 10 3 6 1 10 -5 10 -6 0 -8 5 -5 10 3 6 1 10 -5 10 -6 0 -8 5
-5 10 3 6 1 10 -5 10 -7 0 -9 7 -6 16 4 10 2 13 -6 8 -8 -5 -9 -2 -5 9 4 10 1
17 -5 17 -6 0 -9 3 -5 6 3 4 0 13 -8 20 -8 8 -11 22 -8 31 5 12 3 14 -7 8 -10
-6 -12 -4 -7 8 3 10 2 17 -4 17 -6 0 -7 5 -4 10 3 6 1 10 -5 10 -6 0 -8 5 -5
10 3 6 1 10 -5 10 -6 0 -8 5 -5 10 3 6 1 10 -5 10 -7 0 -9 7 -6 16 4 10 2 13
-6 8 -8 -5 -9 -2 -5 9 3 10 2 17 -4 17 -6 0 -7 5 -4 10 3 6 1 10 -5 10 -6 0
-8 5 -5 10 3 6 1 10 -5 10 -6 0 -8 5 -5 10 3 6 1 10 -5 10 -7 0 -10 7 -6 15 3
8 1 15 -5 15 -6 0 -7 5 -4 10 3 6 1 10 -6 10 -7 0 -10 3 -6 6 3 4 -1 13 -9 21
-8 8 -12 18 -9 23 3 5 1 11 -5 15 -6 4 -8 11 -5 16 4 5 1 9 -5 9 -6 0 -8 5 -5
10 3 6 1 10 -5 10 -6 0 -8 5 -5 10 3 6 1 10 -5 10 -6 0 -8 5 -5 10 3 6 2 10
-4 10 -6 0 -7 7 -4 17 5 12 3 14 -7 8 -10 -6 -12 -4 -7 8 3 10 2 17 -4 17 -6
0 -7 5 -4 10 3 6 1 10 -5 10 -6 0 -8 5 -5 10 3 6 1 10 -5 10 -6 0 -8 5 -5 10
3 6 1 10 -5 10 -7 0 -9 7 -6 16 4 10 2 13 -6 8 -8 -5 -9 -2 -5 9 4 10 1 17 -5
17 -6 0 -9 3 -5 6 3 4 -1 13 -9 21 -8 8 -12 19 -9 24 4 5 1 9 -5 9 -7 0 -9 7
-6 16 4 10 2 13 -6 8 -8 -5 -9 -2 -5 9 3 10 2 17 -4 17 -6 0 -7 5 -4 10 3 6 1
10 -5 10 -6 0 -8 5 -5 10 3 6 1 10 -5 10 -6 0 -8 5 -5 11 4 6 14 8 22 5 9 -4
11 -2 7 6 -5 8 -2 9 9 5 10 -3 17 -2 17 3 0 6 3 9 8 8 4 -1 17 3 29 10 12 6
29 9 37 6 9 -3 16 -1 16 6 0 7 8 9 20 5 12 -4 20 -2 20 6 0 7 10 10 28 6 15
-3 34 -1 42 4 8 5 47 7 85 5 39 -3 81 -6 95 -7z m1705 -29 c-3 -5 -2 -10 4
-10 6 0 7 -7 4 -17 -5 -12 -3 -14 7 -8 10 6 12 4 7 -8 -3 -10 -2 -17 4 -17 6
0 7 -4 4 -10 -3 -5 -2 -10 4 -10 6 0 7 -7 4 -17 -5 -12 -3 -14 7 -8 10 6 12 4
7 -8 -3 -10 -2 -17 4 -17 6 0 7 -4 4 -10 -3 -5 -2 -10 4 -10 6 0 7 -7 4 -17
-5 -12 -3 -14 7 -8 10 6 12 4 7 -8 -3 -10 -2 -17 4 -17 6 0 7 -4 4 -10 -3 -5
-1 -10 5 -10 6 0 8 -4 5 -10 -3 -5 -1 -10 5 -10 7 0 10 -7 6 -15 -3 -8 -1 -15
5 -15 6 0 7 -4 4 -10 -3 -5 -1 -10 5 -10 6 0 8 -4 5 -10 -3 -5 -1 -10 5 -10 7
0 10 -7 6 -15 -3 -8 -1 -15 5 -15 6 0 7 -4 4 -10 -3 -5 -1 -10 5 -10 6 0 8 -4
5 -10 -3 -5 -1 -10 5 -10 7 0 10 -7 6 -15 -3 -8 -1 -15 5 -15 6 0 7 -4 4 -10
-3 -5 -1 -10 5 -10 6 0 8 -4 5 -10 -3 -5 -1 -10 5 -10 7 0 10 -7 6 -15 -3 -8
-1 -15 5 -15 6 0 7 -4 4 -10 -3 -5 -1 -10 5 -10 6 0 8 -4 5 -10 -3 -5 -1 -10
5 -10 7 0 10 -7 6 -15 -3 -8 -1 -15 5 -15 6 0 7 -4 4 -10 -3 -5 -1 -10 5 -10
6 0 8 -4 5 -10 -3 -5 -1 -10 5 -10 7 0 10 -7 6 -15 -3 -8 -1 -15 5 -15 6 0 7
-4 4 -10 -3 -5 -1 -10 5 -10 6 0 8 -4 5 -10 -3 -5 -1 -10 5 -10 7 0 10 -7 6
-15 -3 -8 -1 -15 5 -15 6 0 7 -4 4 -10 -3 -5 -1 -10 5 -10 6 0 8 -4 5 -10 -3
-5 -1 -10 5 -10 7 0 10 -7 6 -15 -3 -8 -1 -15 5 -15 6 0 7 -4 4 -10 -3 -5 -1
-10 5 -10 6 0 8 -4 5 -10 -3 -5 -1 -10 5 -10 7 0 10 -7 6 -15 -3 -8 -1 -15 5
-15 6 0 7 -4 4 -10 -3 -5 -1 -10 5 -10 6 0 8 -4 5 -10 -3 -5 -1 -10 5 -10 7 0
10 -7 6 -15 -3 -8 -1 -15 5 -15 6 0 7 -4 4 -10 -3 -5 -1 -10 5 -10 6 0 8 -4 5
-10 -3 -5 -1 -10 5 -10 7 0 10 -7 6 -15 -3 -8 -1 -15 5 -15 6 0 7 -4 4 -10 -3
-5 -1 -10 5 -10 6 0 8 -4 5 -10 -3 -5 -1 -10 5 -10 7 0 10 -7 6 -15 -3 -8 0
-15 6 -15 6 0 9 -3 5 -6 -3 -4 1 -13 9 -21 8 -9 13 -22 10 -30 -4 -9 -1 -11 5
-7 7 4 10 1 7 -7 -3 -8 2 -20 9 -28 8 -7 12 -20 9 -28 -4 -9 -1 -11 5 -7 7 4
10 1 7 -7 -3 -8 2 -20 9 -28 8 -7 12 -20 9 -28 -4 -9 -1 -11 5 -7 7 4 10 1 7
-7 -3 -8 2 -20 9 -28 8 -7 12 -20 9 -28 -4 -9 -1 -11 5 -7 7 4 10 1 7 -7 -3
-8 2 -20 9 -28 8 -7 12 -20 9 -28 -4 -9 -1 -11 5 -7 7 4 10 1 7 -7 -3 -8 2
-20 9 -28 8 -7 12 -20 9 -28 -4 -9 -1 -11 5 -7 7 4 10 1 7 -7 -3 -8 1 -20 8
-27 7 -7 10 -20 7 -29 -5 -12 -3 -14 7 -8 10 6 12 4 7 -8 -3 -10 -2 -17 4 -17
6 0 7 -4 4 -10 -3 -5 -2 -10 4 -10 6 0 7 -7 4 -17 -5 -12 -3 -14 7 -8 10 6 12
4 7 -8 -3 -10 -2 -17 4 -17 6 0 7 -4 4 -10 -3 -5 -2 -10 4 -10 6 0 8 -7 5 -15
-4 -8 -1 -15 6 -15 6 0 8 -4 5 -10 -3 -5 -1 -10 5 -10 6 0 8 -4 5 -10 -3 -5
-2 -10 4 -10 6 0 7 -7 4 -17 -5 -12 -3 -14 7 -8 10 6 12 4 7 -8 -3 -10 -2 -17
4 -17 6 0 7 -5 4 -10 -3 -6 -2 -10 4 -10 6 0 7 -7 4 -17 -5 -12 -3 -14 7 -8
10 6 12 4 7 -8 -3 -10 -2 -17 4 -17 6 0 7 -4 4 -10 -3 -5 -2 -10 4 -10 6 0 8
-7 5 -15 -4 -8 -1 -15 6 -15 6 0 8 -4 5 -10 -3 -5 -1 -10 5 -10 6 0 8 -5 5
-10 -3 -5 -2 -10 4 -10 6 0 7 -7 4 -17 -5 -12 -3 -14 7 -8 10 6 12 4 7 -8 -3
-10 -2 -17 4 -17 6 0 7 -5 4 -10 -3 -5 -1 -10 5 -10 6 0 8 -5 5 -10 -3 -6 -1
-10 5 -10 7 0 10 -7 6 -15 -3 -8 -1 -15 5 -15 6 0 7 -5 4 -10 -3 -5 -1 -10 5
-10 6 0 8 -5 5 -10 -3 -5 -1 -10 5 -10 7 0 10 -7 6 -15 -3 -8 -1 -15 5 -15 6
0 7 -5 4 -10 -3 -5 -1 -10 5 -10 6 0 8 -5 5 -10 -3 -5 -1 -10 5 -10 7 0 10 -7
6 -15 -3 -8 -1 -15 5 -15 6 0 7 -4 4 -10 -3 -5 -1 -10 5 -10 6 0 8 -4 5 -10
-3 -5 -1 -10 5 -10 7 0 10 -7 6 -15 -3 -8 -1 -15 5 -15 6 0 7 -4 4 -10 -3 -5
-1 -10 5 -10 6 0 8 -4 5 -10 -3 -5 -1 -10 5 -10 7 0 10 -7 6 -15 -3 -8 -1 -15
5 -15 6 0 7 -4 4 -10 -3 -5 -1 -10 5 -10 6 0 8 -4 5 -10 -3 -5 -1 -10 5 -10 7
0 10 -7 6 -15 -3 -8 -1 -15 5 -15 6 0 7 -5 4 -10 -3 -5 -1 -10 5 -10 6 0 8 -4
5 -10 -3 -5 -1 -10 5 -10 7 0 10 -7 6 -15 -3 -8 -1 -15 5 -15 6 0 7 -4 4 -10
-3 -5 -1 -10 5 -10 6 0 8 -5 5 -10 -3 -6 -1 -10 5 -10 7 0 10 -7 6 -15 -3 -8
-1 -15 5 -15 6 0 7 -5 4 -10 -3 -6 -1 -10 5 -10 6 0 8 -5 5 -10 -3 -6 -1 -10
5 -10 7 0 10 -7 6 -15 -3 -8 -1 -15 5 -15 6 0 7 -4 4 -10 -3 -5 -1 -10 5 -10
6 0 8 -5 5 -10 -3 -5 -1 -10 5 -10 7 0 10 -7 6 -15 -3 -8 -1 -15 4 -15 6 0 10
-4 10 -10 0 -7 -225 -10 -655 -10 -360 0 -655 3 -655 8 0 4 14 20 32 35 18 16
26 26 18 22 -8 -3 -1 6 15 20 17 15 23 24 15 20 -8 -3 -6 2 5 12 11 10 21 25
23 33 2 8 8 20 15 25 7 6 13 17 15 25 2 8 10 20 17 26 8 6 12 13 9 16 -9 9 19
58 29 51 6 -4 8 0 4 10 -3 9 0 22 7 29 7 7 11 18 9 24 -2 7 3 19 12 28 9 9 13
20 10 26 -3 5 -2 10 3 10 6 0 8 9 5 20 -3 11 0 20 6 20 5 0 8 6 5 14 -3 8 -1
17 4 20 6 3 8 15 5 26 -3 12 0 20 7 20 7 0 9 8 5 20 -3 11 -3 25 1 31 10 17
14 68 13 184 0 166 -1 175 -11 175 -6 0 -8 11 -4 24 3 14 1 28 -5 32 -6 3 -9
15 -6 25 3 10 1 19 -5 21 -5 2 -10 18 -10 36 -1 17 -5 32 -11 32 -5 0 -7 7 -3
15 3 8 1 15 -4 15 -5 0 -6 7 -3 17 5 12 3 14 -7 8 -10 -6 -12 -4 -7 8 3 10 2
17 -4 17 -6 0 -7 5 -4 10 3 6 1 10 -5 10 -7 0 -10 7 -6 15 3 8 1 15 -5 15 -6
0 -7 4 -4 10 3 6 1 10 -5 10 -6 0 -8 5 -5 10 3 6 1 10 -6 10 -7 0 -9 3 -6 7 4
3 0 11 -8 17 -7 6 -15 18 -17 26 -2 8 -8 19 -15 25 -7 5 -13 17 -15 25 -2 8
-12 23 -23 33 -11 10 -13 15 -5 12 8 -4 4 3 -10 16 -14 13 -19 20 -10 15 8 -5
-3 8 -26 30 -22 21 -33 35 -24 29 9 -5 -2 8 -25 30 -23 22 -61 60 -85 85 -24
25 -37 36 -29 24 8 -11 -1 -4 -20 15 -19 20 -31 29 -27 21 4 -8 -5 -1 -19 15
-15 17 -24 24 -20 16 5 -9 0 -8 -18 4 -14 9 -28 23 -31 31 -3 9 -10 12 -16 9
-5 -3 -10 -1 -10 5 0 6 -4 8 -10 5 -16 -10 -12 22 5 38 8 8 11 17 8 21 -4 3
-1 6 6 6 7 0 9 5 6 10 -3 6 -1 10 5 10 6 0 8 5 5 10 -3 6 -1 10 4 10 6 0 10 3
10 8 -3 20 2 32 13 26 7 -4 8 -3 4 4 -8 14 40 112 55 112 5 0 7 5 4 10 -3 6
-1 10 5 10 6 0 8 5 5 10 -3 6 -1 10 5 10 6 0 8 5 5 10 -3 6 -1 10 5 10 6 0 8
5 5 10 -3 6 -1 10 5 10 6 0 8 5 5 10 -3 6 -1 10 5 10 6 0 8 5 5 10 -3 6 -1 10
5 10 6 0 8 5 5 10 -3 6 -1 10 5 10 6 0 8 5 5 10 -3 6 -1 10 5 10 6 0 8 5 5 10
-3 6 -1 10 5 10 6 0 8 5 5 10 -3 6 -1 10 5 10 6 0 9 4 5 9 -3 5 1 16 9 24 8 8
12 17 9 21 -4 3 -1 6 6 6 7 0 9 5 6 10 -3 6 -1 10 5 10 6 0 8 5 5 10 -3 6 -1
10 5 10 6 0 8 5 5 10 -3 6 -1 10 5 10 6 0 8 5 5 10 -3 6 1 13 9 16 9 3 13 10
11 15 -8 11 43 109 56 109 5 0 7 5 4 10 -3 6 -1 10 5 10 6 0 8 5 5 10 -3 6 -1
10 5 10 6 0 8 5 5 10 -3 6 -1 10 5 10 6 0 8 5 5 10 -3 6 -1 10 5 10 6 0 8 5 5
10 -3 6 -1 10 5 10 6 0 8 5 5 10 -3 6 -1 10 5 10 6 0 8 5 5 10 -3 6 -1 10 5
10 6 0 8 5 5 10 -3 6 -1 10 4 10 6 0 10 3 10 8 -2 12 1 22 7 22 3 0 2 -4 -1
-10z m-2270 -1120 c-3 -5 -1 -10 6 -10 7 0 10 -3 6 -6 -3 -4 1 -13 9 -21 8 -9
13 -22 10 -30 -4 -9 -2 -11 6 -7 8 5 9 2 5 -9 -3 -10 -2 -17 4 -17 6 0 7 -4 4
-10 -3 -5 -1 -10 6 -10 7 0 10 -3 6 -6 -3 -4 1 -13 9 -21 8 -9 13 -22 10 -30
-4 -9 -2 -11 6 -7 8 5 9 2 5 -9 -3 -10 -2 -17 4 -17 6 0 7 -4 4 -10 -3 -5 -2
-10 3 -10 13 0 33 -50 26 -62 -5 -7 -2 -8 6 -3 10 6 12 4 7 -8 -4 -10 -1 -17
5 -17 6 0 9 -3 5 -6 -3 -4 1 -13 9 -21 8 -9 13 -22 10 -30 -4 -9 -2 -11 6 -7
8 5 9 2 5 -9 -3 -10 -2 -17 4 -17 6 0 7 -4 4 -10 -3 -5 -1 -10 6 -10 7 0 10
-3 6 -6 -3 -4 1 -13 9 -21 8 -9 13 -22 10 -30 -4 -9 -2 -11 6 -7 8 5 9 2 5 -9
-3 -10 -2 -17 4 -17 6 0 7 -4 4 -10 -3 -5 -2 -10 3 -10 12 0 34 -49 27 -61 -4
-5 -1 -9 5 -9 6 0 8 -4 5 -10 -3 -5 -1 -10 6 -10 7 0 10 -3 6 -6 -3 -4 1 -13
9 -21 8 -9 13 -22 10 -30 -4 -9 -2 -11 6 -7 8 5 9 2 5 -9 -3 -10 -2 -17 4 -17
6 0 7 -4 4 -10 -3 -5 -1 -10 6 -10 7 0 10 -3 6 -6 -3 -4 1 -13 9 -21 8 -9 13
-22 10 -30 -4 -9 -2 -11 6 -7 8 5 9 2 5 -9 -3 -10 -2 -17 4 -17 6 0 7 -4 4
-10 -3 -5 -2 -10 3 -10 12 0 34 -49 27 -61 -4 -5 -1 -9 5 -9 6 0 8 -4 5 -10
-3 -5 -1 -10 6 -10 7 0 10 -3 6 -6 -3 -4 1 -13 9 -21 8 -9 13 -22 10 -30 -4
-9 -2 -11 6 -7 8 5 9 2 5 -9 -3 -10 -2 -17 4 -17 6 0 7 -4 4 -10 -3 -5 -1 -10
6 -10 7 0 10 -3 6 -6 -3 -4 1 -13 9 -21 8 -9 13 -22 10 -30 -4 -9 -2 -11 6 -7
8 5 9 2 5 -9 -4 -10 -1 -17 5 -17 6 0 9 -3 5 -6 -3 -4 1 -13 9 -21 8 -9 13
-22 10 -30 -4 -9 -2 -11 6 -7 8 5 9 2 5 -9 -3 -10 -2 -17 4 -17 6 0 7 -4 4
-10 -3 -5 -1 -10 6 -10 7 0 10 -3 6 -6 -3 -4 1 -13 9 -21 8 -9 13 -22 10 -30
-4 -9 -2 -11 6 -7 8 5 9 2 5 -9 -3 -10 -2 -17 4 -17 6 0 7 -4 4 -10 -3 -5 -1
-10 6 -10 7 0 10 -3 6 -6 -3 -4 1 -13 9 -21 8 -9 13 -22 10 -30 -4 -9 -2 -11
6 -7 8 5 9 2 5 -9 -4 -10 -1 -17 5 -17 6 0 9 -3 5 -6 -3 -4 1 -13 9 -21 8 -9
13 -22 10 -30 -4 -9 -2 -11 6 -7 8 5 9 2 5 -9 -3 -10 -3 -17 2 -17 4 0 8 -7 8
-15 0 -13 -79 -15 -652 -15 -644 0 -651 0 -652 20 -1 11 3 20 8 20 6 0 7 5 4
10 -3 6 -2 10 4 10 6 0 8 7 5 15 -4 8 -1 15 5 15 6 0 8 6 5 14 -3 7 1 20 9 27
7 8 12 20 9 27 -2 6 1 12 7 12 6 0 8 6 5 14 -3 7 1 20 9 27 7 8 12 19 10 25
-2 7 2 18 10 25 7 8 12 20 9 27 -2 6 1 12 7 12 6 0 8 6 5 14 -3 7 1 20 9 27 7
8 12 20 9 27 -2 6 1 12 7 12 6 0 7 7 4 17 -4 11 -3 14 5 9 8 -5 10 -2 6 8 -3
9 -1 16 5 16 6 0 8 6 5 14 -3 7 1 20 9 27 7 8 12 20 9 27 -2 6 1 12 7 12 6 0
8 6 5 14 -3 7 1 20 9 27 7 8 12 20 9 27 -2 6 1 12 8 12 6 0 8 5 5 10 -3 6 -2
10 4 10 6 0 8 7 5 15 -4 8 -1 15 5 15 6 0 8 6 5 14 -3 7 1 20 9 27 7 8 12 20
9 27 -2 6 1 12 7 12 6 0 7 7 4 17 -4 11 -3 14 5 9 8 -5 10 -2 6 8 -3 9 -1 16
5 16 6 0 8 6 5 14 -3 7 1 20 9 27 7 8 12 20 9 27 -2 6 1 12 7 12 6 0 8 6 5 14
-3 7 1 20 9 27 7 8 12 20 9 27 -2 6 1 12 7 12 6 0 7 7 4 17 -4 11 -3 14 5 9 8
-5 10 -2 6 8 -3 9 -1 16 5 16 6 0 8 6 5 14 -3 7 1 20 9 27 7 8 12 20 9 27 -2
6 1 12 7 12 6 0 8 6 5 14 -3 7 1 20 9 27 7 8 12 20 9 27 -2 6 1 12 8 12 6 0 8
5 5 10 -3 6 -2 10 4 10 6 0 8 7 5 15 -4 8 -1 15 5 15 6 0 8 6 5 14 -3 7 1 20
9 27 7 8 12 20 9 27 -2 6 1 12 7 12 6 0 7 7 4 17 -4 11 -3 14 5 9 8 -5 10 -2
6 8 -3 9 -1 16 5 16 6 0 8 6 5 14 -3 7 1 20 9 27 7 8 12 20 9 27 -2 6 1 12 7
12 6 0 8 6 5 14 -3 7 1 20 9 27 7 8 12 20 9 27 -2 6 1 12 8 12 6 0 8 5 5 10
-3 6 -2 10 4 10 6 0 8 7 5 15 -4 8 -1 15 6 15 6 0 9 4 6 9 -8 12 4 41 16 41 5
0 6 -4 3 -10z m1665 -1283 c0 -2 -10 -12 -22 -23 l-23 -19 19 23 c18 21 26 27
26 19z"/>
</g>
</svg>
