<?xml version="1.0" standalone="no"?>
<!DOCTYPE svg PUBLIC "-//W3C//DTD SVG 20010904//EN"
 "http://www.w3.org/TR/2001/REC-SVG-20010904/DTD/svg10.dtd">
<svg version="1.0" xmlns="http://www.w3.org/2000/svg"
 width="144.000000pt" height="144.000000pt" viewBox="0 0 144.000000 144.000000"
 preserveAspectRatio="xMidYMid meet">
<metadata>
Created by potrace 1.11, written by Peter Selinger 2001-2013
</metadata>
<g transform="translate(0.000000,144.000000) scale(0.100000,-0.100000)"
fill="#000000" stroke="none">
<path d="M578 1424 c-43 -7 -92 -21 -110 -29 -18 -8 -25 -13 -15 -10 124 34
292 31 408 -8 293 -99 479 -357 479 -665 0 -445 -429 -776 -865 -666 -14 3
-25 4 -25 1 0 -3 43 -16 96 -28 276 -64 568 39 734 258 111 146 156 292 148
477 -9 197 -68 328 -212 471 -111 111 -211 165 -358 195 -108 23 -173 24 -280
4z"/>
<path d="M544 1371 c-247 -40 -456 -227 -525 -471 -29 -101 -26 -276 6 -377
35 -111 88 -194 177 -278 138 -130 274 -180 473 -173 141 5 211 25 321 94 169
104 276 273 305 477 10 72 9 100 -5 183 -42 249 -208 441 -452 523 -70 23
-221 34 -300 22z m-288 -369 c5 -4 20 -32 33 -62 59 -140 154 -356 161 -363 6
-7 28 39 159 343 l37 85 62 3 c38 2 62 -1 62 -8 0 -5 -6 -10 -14 -10 -7 0 -16
-10 -20 -22 -8 -30 -8 -462 0 -482 3 -9 12 -16 20 -16 8 0 14 -4 14 -10 0 -6
-32 -10 -76 -10 -47 0 -73 4 -69 10 3 6 13 10 21 10 12 0 14 36 14 228 l0 227
-102 -237 c-73 -172 -106 -238 -118 -238 -11 0 -37 50 -90 173 -40 94 -86 199
-101 232 l-28 60 -1 -218 c0 -211 1 -219 20 -224 41 -11 18 -23 -45 -23 -63 0
-86 12 -45 23 19 5 20 14 20 261 0 249 -1 256 -20 256 -11 0 -20 5 -20 10 0
11 110 13 126 2z m854 -18 c45 -26 71 -63 76 -110 6 -47 -11 -81 -52 -109
l-31 -21 37 -22 c68 -39 90 -129 47 -193 -40 -60 -83 -74 -244 -77 -99 -3
-143 -1 -143 7 0 6 9 11 20 11 19 0 20 7 20 260 0 253 -1 260 -20 260 -11 0
-20 5 -20 11 0 8 40 10 138 7 114 -3 145 -8 172 -24z"/>
<path d="M920 860 l0 -100 43 0 c101 0 149 35 149 107 0 29 -7 43 -31 65 -27
25 -39 28 -96 28 l-65 0 0 -100z"/>
<path d="M920 611 l0 -109 29 -7 c56 -12 147 18 166 55 47 92 -26 170 -159
170 l-36 0 0 -109z"/>
</g>
</svg>
